# xmcd
#
# Track frame offsets: 
#        150
#        17160
#        39140
#        75325
#
# Disc length: 1227 seconds
#
# Revision: 1
# Processed by: cddbd v1.4PL0 Copyright (c) Steve Scherf et al.
# Submitted via: ExactAudioCopy v0.90b4
#
DISCID=1b04c904
DTITLE=La Boom feat. DJ Session One - I Need Your Love
DYEAR=1995
DGENRE=Trance
TTITLE0=I Need Your Love (radio edit)
TTITLE1=I Need Your Love (Maxi)
TTITLE2=I Need Your Love (Horny United Mix)
TTITLE3=I Need Your Love (Intrumental)
EXTD=
EXTT0=
EXTT1=
EXTT2=
EXTT3=
PLAYORDER=
